<?xml version="1.0" encoding="UTF-8" standalone="no"?>
<!-- Generator: Adobe Illustrator 15.1.0, SVG Export Plug-In . SVG Version: 6.00 Build 0)  -->

<svg
   xmlns:dc="http://purl.org/dc/elements/1.1/"
   xmlns:cc="http://creativecommons.org/ns#"
   xmlns:rdf="http://www.w3.org/1999/02/22-rdf-syntax-ns#"
   xmlns:svg="http://www.w3.org/2000/svg"
   xmlns="http://www.w3.org/2000/svg"
   xmlns:sodipodi="http://sodipodi.sourceforge.net/DTD/sodipodi-0.dtd"
   xmlns:inkscape="http://www.inkscape.org/namespaces/inkscape"
   version="1.1"
   id="Capa_1"
   x="0px"
   y="0px"
   width="398.08087"
   height="83.404175"
   viewBox="0 0 398.08088 83.404176"
   enable-background="new 0 0 841.891 595.279"
   xml:space="preserve"
   inkscape:version="0.48.5 r10040"
   sodipodi:docname="logo.svg"><metadata
     id="metadata307"><rdf:RDF><cc:Work
         rdf:about=""><dc:format>image/svg+xml</dc:format><dc:type
           rdf:resource="http://purl.org/dc/dcmitype/StillImage" /><dc:title /></cc:Work></rdf:RDF></metadata><defs
     id="defs305" /><sodipodi:namedview
     pagecolor="#ffffff"
     bordercolor="#666666"
     borderopacity="1"
     objecttolerance="10"
     gridtolerance="10"
     guidetolerance="10"
     inkscape:pageopacity="0"
     inkscape:pageshadow="2"
     inkscape:window-width="1701"
     inkscape:window-height="985"
     id="namedview303"
     showgrid="false"
     fit-margin-top="3"
     fit-margin-left="3"
     fit-margin-right="3"
     fit-margin-bottom="3"
     inkscape:zoom="1.4158603"
     inkscape:cx="261.9685"
     inkscape:cy="101.08067"
     inkscape:window-x="135"
     inkscape:window-y="0"
     inkscape:window-maximized="0"
     inkscape:current-layer="Capa_1" /><g
     id="g3"
     transform="translate(-221.90435,-101.93382)"><g
       id="g5"><g
         id="g7"
         style="fill:#005369;fill-opacity:1"><path
           d="m 325.683,161.526 0.265,-40.193 c -0.019,-2.8 -0.098,-4.277 -0.239,-4.418 -0.78,-0.762 -1.806,-2.461 -3.09,-5.08 -1.279,-2.625 -1.919,-4.321 -1.925,-5.091 l 0.106,-0.321 c 0.413,-0.354 2.641,-0.682 6.673,-0.989 4.033,-0.301 8.028,-0.475 11.994,-0.498 3.96,-0.027 7.593,0.197 10.894,0.664 3.301,0.469 6.515,1.222 9.642,2.256 3.128,1.03 5.646,2.576 7.554,4.628 1.907,2.06 2.873,4.369 2.888,6.929 0.016,2.56 -0.512,4.878 -1.588,6.954 -1.073,2.076 -2.412,3.824 -4.018,5.238 -2.439,2.117 -4.812,3.752 -7.12,4.885 -0.143,0.141 -0.209,0.25 -0.209,0.317 0.067,0.067 0.581,0.237 1.528,0.515 0.949,0.277 1.863,0.603 2.743,0.981 0.881,0.383 1.953,0.879 3.219,1.503 1.266,0.624 2.429,1.371 3.488,2.243 1.057,0.867 2.046,1.859 2.968,2.978 2.047,2.374 3.085,5.611 3.113,9.709 0.025,4.104 -1.212,7.955 -3.716,11.549 -2.498,3.592 -5.849,6.427 -10.043,8.48 -8.392,4.127 -17.956,6.228 -28.69,6.295 l -5.368,-0.28 c -0.21,-0.283 -0.438,-2.826 -0.676,-7.626 -0.243,-4.803 -0.373,-8.674 -0.393,-11.628 z m 14.675,7.484 c 4.7,-0.024 9.144,-1.424 13.337,-4.196 4.189,-2.754 6.273,-5.997 6.253,-9.717 -0.019,-2.666 -1.089,-4.864 -3.203,-6.607 -3.667,-2.923 -8.761,-4.362 -15.286,-4.32 -1.616,0.011 -2.473,0.053 -2.578,0.123 -0.105,0.069 -0.137,3.338 -0.098,9.786 0.045,6.453 0.393,11.397 1.047,14.829 0.14,0.073 0.319,0.102 0.528,0.102 z m 7.962,-37.667 c 1.818,-0.746 3.369,-1.879 4.661,-3.396 1.284,-1.518 1.927,-3.102 1.914,-4.748 -0.012,-1.647 -0.511,-2.964 -1.497,-3.938 -0.993,-0.973 -2.223,-1.704 -3.698,-2.184 -1.479,-0.486 -2.899,-0.824 -4.271,-1.027 -1.368,-0.205 -2.686,-0.298 -3.946,-0.29 -1.264,0.01 -1.946,0.063 -2.05,0.169 -0.104,0.102 -0.227,2.982 -0.365,8.633 -0.141,5.648 -0.207,8.647 -0.205,9.001 0.07,0.069 0.438,0.101 1.104,0.095 0.669,-0.006 1.773,-0.204 3.311,-0.602 1.54,-0.394 3.22,-0.965 5.042,-1.713 z"
           id="path9"
           style="fill:#005369;fill-opacity:1"
           inkscape:connector-curvature="0" /><path
           d="m 389.712,113.024 c 1.93,-0.011 3.492,0.613 4.694,1.867 1.198,1.258 1.806,2.895 1.821,4.933 0.013,2.035 -0.762,3.777 -2.333,5.222 -1.571,1.451 -3.32,2.181 -5.247,2.197 -1.931,0.006 -3.473,-0.592 -4.643,-1.816 -1.166,-1.214 -1.752,-2.843 -1.77,-4.88 -0.014,-2.034 0.749,-3.791 2.282,-5.276 1.533,-1.485 3.266,-2.231 5.196,-2.247 z m 5.482,26.167 -0.096,17.049 c 0.032,5.467 0.217,9.487 0.55,12.039 0.334,2.563 1.243,4.958 2.733,7.198 0,0.698 -1.427,1.829 -4.292,3.392 -2.87,1.565 -5.319,2.352 -7.355,2.363 -0.632,0.001 -1.269,-1.046 -1.912,-3.145 -0.648,-2.1 -1.061,-4.099 -1.248,-5.986 -0.189,-1.892 -0.317,-8.276 -0.391,-19.152 -0.068,-10.871 0.138,-16.799 0.621,-17.787 1.604,-1.274 4.444,-1.924 8.512,-1.952 1.613,-0.003 2.596,0.198 2.949,0.614 l -0.071,5.367 z"
           id="path11"
           style="fill:#005369;fill-opacity:1"
           inkscape:connector-curvature="0" /><path
           d="m 418.129,106.737 c -0.129,1.618 -0.275,6.036 -0.438,13.264 5.265,-0.038 7.894,0.052 7.894,0.266 0.017,2.381 -0.321,4.507 -1.01,6.374 -0.688,1.86 -1.349,2.794 -1.983,2.794 l -4.946,0.037 c -0.072,10.381 -0.085,18.816 -0.041,25.306 0.041,6.491 0.173,10.818 0.397,12.99 0.446,3.645 1.902,6.615 4.376,8.92 0.006,0.767 -1.345,1.904 -4.031,3.389 -2.693,1.496 -5.231,2.248 -7.617,2.261 -0.208,0 -0.616,-0.347 -1.217,-1.043 -0.6,-0.698 -1.238,-1.85 -1.915,-3.461 -0.678,-1.611 -1.108,-3.184 -1.293,-4.726 -0.188,-1.547 -0.309,-7.05 -0.372,-16.521 -0.063,-9.467 -0.015,-18.415 0.14,-26.834 l -5.893,0.146 c -0.352,-0.346 -0.537,-1.869 -0.553,-4.573 -0.016,-2.697 0.286,-4.332 0.914,-4.898 1.545,-0.079 3.402,-0.16 5.574,-0.248 -0.025,-4.068 -0.148,-6.696 -0.365,-7.887 -0.217,-1.188 -0.33,-1.891 -0.33,-2.101 -0.003,-0.702 1.197,-1.517 3.614,-2.446 2.414,-0.921 4.532,-1.396 6.359,-1.408 1.825,-0.015 2.734,0.12 2.736,0.399 z"
           id="path13"
           style="fill:#005369;fill-opacity:1"
           inkscape:connector-curvature="0" /><path
           d="m 449.226,178.511 c -8.001,0.048 -13.942,-1.948 -17.83,-5.989 -3.882,-4.043 -5.846,-9.153 -5.885,-15.324 -0.057,-8.625 2.795,-15.521 8.547,-20.679 5.755,-5.157 12.8,-7.766 21.151,-7.822 1.613,-0.008 2.561,0.022 2.844,0.089 0.423,0.349 0.642,2.029 0.663,5.045 0.022,3.017 -0.387,4.845 -1.224,5.48 h -0.741 c -5.396,0.037 -9.775,1.332 -13.126,3.88 -1.397,1.059 -2.612,2.717 -3.649,4.967 -1.04,2.251 -1.547,4.954 -1.528,8.112 0.021,3.157 0.986,5.764 2.896,7.819 1.904,2.058 4.965,3.071 9.174,3.047 3.294,-0.024 6.202,-0.672 8.72,-1.95 0.276,-0.143 0.453,-0.215 0.524,-0.221 0.562,0.567 0.854,2.461 0.877,5.68 0.022,3.228 -0.352,5.155 -1.12,5.798 -2.303,1.348 -5.738,2.037 -10.293,2.068 z"
           id="path15"
           style="fill:#005369;fill-opacity:1"
           inkscape:connector-curvature="0" /><path
           d="m 511.849,153.334 c 0.514,-7.309 -1.166,-13.398 -5.042,-18.262 -1.646,-2.067 -3.625,-3.711 -5.897,-4.997 -2.394,-1.355 -5.124,-2.294 -8.225,-2.774 -0.894,-0.141 -1.818,-0.25 -2.771,-0.32 -7.381,-0.518 -13.416,1.677 -18.096,6.582 -4.676,4.911 -7.268,10.929 -7.766,18.048 -0.021,0.27 -0.016,0.528 -0.026,0.796 -0.031,0.292 -0.078,0.57 -0.102,0.866 -0.512,7.312 1.169,13.409 5.042,18.272 1.646,2.063 3.625,3.709 5.896,4.998 2.395,1.347 5.125,2.287 8.225,2.774 0.896,0.139 1.817,0.245 2.772,0.312 7.381,0.518 13.416,-1.674 18.094,-6.583 4.68,-4.906 7.267,-10.926 7.769,-18.048 0.016,-0.273 0.016,-0.528 0.031,-0.794 0.029,-0.29 0.081,-0.572 0.096,-0.87 z m -32.024,16.705 c -4.561,-3.189 -6.583,-8.504 -6.061,-15.928 0.07,-0.993 0.188,-1.928 0.341,-2.837 0.006,-0.105 0.006,-0.194 0.012,-0.304 0.404,-5.811 2.122,-10.089 5.142,-12.853 3.013,-2.751 6.12,-4.015 9.306,-3.791 3.196,0.224 5.654,0.973 7.387,2.24 4.561,3.2 6.582,8.511 6.06,15.936 -0.065,0.986 -0.195,1.924 -0.341,2.836 -0.006,0.102 -0.006,0.191 -0.012,0.303 -0.404,5.814 -2.121,10.097 -5.139,12.844 -3.016,2.761 -6.118,4.026 -9.314,3.8 -3.19,-0.226 -5.653,-0.971 -7.381,-2.246 z"
           id="path17"
           style="fill:#005369;fill-opacity:1"
           inkscape:connector-curvature="0" /><path
           d="m 523.588,112.139 c 1.929,-0.011 3.494,0.613 4.696,1.867 1.198,1.252 1.808,2.898 1.822,4.938 0.01,2.029 -0.764,3.772 -2.336,5.221 -1.567,1.449 -3.32,2.176 -5.249,2.191 -1.929,0.008 -3.473,-0.592 -4.639,-1.816 -1.169,-1.213 -1.754,-2.844 -1.771,-4.88 -0.012,-2.033 0.748,-3.796 2.284,-5.275 1.529,-1.484 3.264,-2.233 5.193,-2.246 z m 5.483,26.167 -0.095,17.048 c 0.031,5.471 0.217,9.482 0.549,12.042 0.336,2.561 1.245,4.955 2.732,7.195 0.002,0.702 -1.426,1.832 -4.29,3.397 -2.869,1.558 -5.317,2.347 -7.355,2.36 -0.632,0.003 -1.269,-1.048 -1.912,-3.145 -0.645,-2.101 -1.061,-4.095 -1.249,-5.989 -0.188,-1.893 -0.315,-8.276 -0.39,-19.148 -0.069,-10.871 0.137,-16.802 0.617,-17.784 1.605,-1.277 4.448,-1.926 8.516,-1.958 1.613,-0.01 2.595,0.198 2.947,0.615 l -0.07,5.367 z"
           id="path19"
           style="fill:#005369;fill-opacity:1"
           inkscape:connector-curvature="0" /><path
           d="m 551.674,151.1 0.13,3.896 0.058,7.995 c 0.046,7.503 -0.074,11.402 -0.343,11.683 -0.915,0.917 -2.484,1.629 -4.724,2.135 -2.244,0.508 -4.084,0.766 -5.521,0.773 -1.441,0.012 -2.159,-0.089 -2.159,-0.3 0.469,-3.162 0.678,-8.354 0.635,-15.582 l -0.469,-23.669 c -0.033,-4.346 0.127,-6.698 0.48,-7.055 0.761,-0.773 2.091,-1.467 3.983,-2.074 1.888,-0.615 3.654,-0.917 5.306,-0.932 1.648,-0.009 2.476,0.158 2.476,0.509 -0.197,1.684 -0.295,3.374 -0.279,5.054 0.009,1.685 0.117,2.526 0.329,2.526 l 0.312,-0.214 c 0.352,-0.494 0.875,-1.11 1.57,-1.854 0.697,-0.741 2.181,-1.725 4.455,-2.973 2.27,-1.248 4.439,-1.872 6.509,-1.883 2.066,-0.015 3.825,0.345 5.271,1.072 1.441,0.721 2.62,1.61 3.542,2.656 0.919,1.046 1.717,2.549 2.394,4.513 0.682,1.957 1.201,3.775 1.563,5.458 0.356,1.681 0.656,3.928 0.884,6.728 0.235,3.856 0.374,8.768 0.412,14.73 l -0.235,12.315 c 0.006,0.489 -1.152,0.966 -3.462,1.443 -2.309,0.463 -4.165,0.709 -5.574,0.715 l -3.473,-0.501 c 0.659,-6.32 0.973,-12.441 0.929,-18.37 -0.034,-5.93 -0.453,-10.373 -1.242,-13.357 -0.792,-2.973 -2.343,-4.453 -4.658,-4.44 -2.314,0.014 -4.186,0.659 -5.618,1.934 -1.429,1.269 -2.346,2.538 -2.763,3.801 l -0.726,1.792 0.008,1.476 z"
           id="path21"
           style="fill:#005369;fill-opacity:1"
           inkscape:connector-curvature="0" /><path
           d="m 616.985,162.249 c 0.023,3.792 -1.727,7.189 -5.246,10.189 -3.526,3.006 -7.335,5.17 -11.431,6.495 -4.091,1.326 -7.686,1.999 -10.774,2.014 -0.349,0 -0.843,-0.413 -1.477,-1.248 -1.771,-2.304 -2.665,-5.002 -2.688,-8.088 v -0.739 c 5.471,-0.039 9.638,-1.008 12.501,-2.923 2.864,-1.909 4.29,-3.888 4.274,-5.919 -0.011,-1.334 -0.894,-2.731 -2.658,-4.193 -1.761,-1.458 -3.696,-2.743 -5.813,-3.855 -2.109,-1.109 -4.053,-2.586 -5.815,-4.434 -1.764,-1.843 -2.655,-3.79 -2.669,-5.822 -0.023,-4.277 2.612,-8.224 7.922,-11.839 5.303,-3.611 10.978,-5.436 17.012,-5.472 0.699,-0.009 1.62,0.954 2.756,2.874 1.132,1.92 1.74,3.904 1.823,5.936 -1.402,0.006 -3.503,0.443 -6.3,1.302 -5.533,1.792 -8.29,3.983 -8.274,6.576 0.016,1.826 2.767,4.297 8.258,7.417 2.113,1.18 4.05,2.813 5.821,4.907 1.765,2.094 2.69,4.369 2.778,6.822 z"
           id="path23"
           style="fill:#005369;fill-opacity:1"
           inkscape:connector-curvature="0" /></g><g
         id="g25"><g
           id="g27"
           style="fill:#e96c25;fill-opacity:1"><path
             d="m 260.603,174.815 c -2.375,1.629 -7.036,2.467 -13.978,2.517 -6.949,0.043 -12.29,-1.995 -16.035,-6.111 -3.746,-4.113 -5.641,-9.627 -5.685,-16.53 -0.044,-6.915 2.143,-12.925 6.562,-18.039 4.421,-5.117 10.666,-7.703 18.733,-7.75 3.298,-0.024 6.334,0.836 9.119,2.572 2.782,1.734 4.187,4.792 4.215,9.179 0.029,4.383 -1.855,8.722 -5.648,13.029 -3.798,4.306 -8.984,7.6 -15.562,9.888 0.008,0.84 0.868,1.522 2.59,2.034 1.722,0.515 3.427,0.767 5.108,0.755 5.329,-0.036 9.535,-1.009 12.608,-2.92 0.07,-0.07 0.173,-0.112 0.315,-0.112 0.141,0 0.216,0.671 0.225,2.003 0.025,4.07 -0.832,7.228 -2.567,9.485 z m -9.373,-33.397 c -0.015,-2.038 -1.108,-3.051 -3.284,-3.035 -2.876,0.021 -5.39,1.508 -7.547,4.469 -2.156,2.959 -3.219,6.512 -3.189,10.649 0.005,0.984 0.144,1.466 0.429,1.466 2.523,-0.083 5.423,-1.557 8.706,-4.42 3.276,-2.863 4.906,-5.907 4.885,-9.129 z"
             id="path29"
             style="fill:#e96c25;fill-opacity:1"
             inkscape:connector-curvature="0" /><path
             d="m 283.699,150.988 0.133,3.892 0.051,7.997 c 0.047,7.507 -0.069,11.405 -0.347,11.686 -0.906,0.919 -2.479,1.626 -4.721,2.134 -2.24,0.505 -4.084,0.764 -5.519,0.769 -1.44,0.012 -2.159,-0.09 -2.16,-0.296 0.471,-3.167 0.684,-8.352 0.635,-15.577 l -0.469,-23.676 c -0.029,-4.349 0.13,-6.696 0.481,-7.054 0.766,-0.777 2.096,-1.469 3.986,-2.077 1.888,-0.608 3.659,-0.92 5.307,-0.934 1.647,-0.01 2.473,0.164 2.474,0.515 -0.198,1.682 -0.29,3.371 -0.281,5.051 0.012,1.681 0.125,2.527 0.331,2.522 l 0.314,-0.208 c 0.348,-0.495 0.872,-1.11 1.57,-1.855 0.695,-0.741 2.179,-1.731 4.452,-2.977 2.271,-1.24 4.443,-1.866 6.511,-1.885 2.067,-0.008 3.825,0.345 5.268,1.075 1.442,0.725 2.623,1.616 3.542,2.661 0.917,1.046 1.72,2.547 2.397,4.512 0.681,1.952 1.199,3.774 1.562,5.455 0.362,1.683 0.656,3.927 0.885,6.732 0.236,3.856 0.376,8.765 0.412,14.73 l -0.237,12.314 c 0.004,0.486 -1.15,0.968 -3.46,1.44 -2.311,0.468 -4.17,0.713 -5.573,0.719 l -3.478,-0.502 c 0.661,-6.32 0.974,-12.44 0.934,-18.369 -0.037,-5.923 -0.453,-10.381 -1.243,-13.356 -0.792,-2.974 -2.347,-4.454 -4.66,-4.438 -2.314,0.016 -4.189,0.656 -5.618,1.926 -1.43,1.273 -2.35,2.543 -2.762,3.808 l -0.727,1.792 0.01,1.474 z"
             id="path31"
             style="fill:#e96c25;fill-opacity:1"
             inkscape:connector-curvature="0" /></g></g></g><g
       id="g4052"
       style="fill:#e96c25;fill-opacity:1"><path
         id="path33"
         d="m 488.769,151.916 c -1.489,-1.101 -3.597,-0.779 -4.701,0.709 -1.103,1.497 -0.786,3.603 0.708,4.707 1.496,1.106 3.604,0.785 4.705,-0.713 1.106,-1.49 0.79,-3.602 -0.712,-4.703 z"
         style="fill:#e96c25;fill-opacity:1"
         inkscape:connector-curvature="0" /><g
         id="g35"
         style="fill:#e96c25;fill-opacity:1"><polygon
           id="polygon37"
           points="493.516,150.948 499.3,154.224 493.587,157.541 "
           style="fill:#e96c25;fill-opacity:1" /></g><rect
         id="rect39"
         height="1.664"
         width="6.6929998"
         y="153.311"
         x="487.12"
         style="fill:#e96c25;fill-opacity:1" /><g
         id="g41"
         style="fill:#e96c25;fill-opacity:1"><g
           id="g43"
           style="fill:#e96c25;fill-opacity:1"><polygon
             id="polygon45"
             points="483.757,146.002 486.54,140.144 489.792,145.77 "
             style="fill:#e96c25;fill-opacity:1" /></g><rect
           id="rect47"
           height="1.664"
           width="6.6950002"
           transform="matrix(-0.0319,-0.9995,0.9995,-0.0319,353.4187,640.2565)"
           y="148.145"
           x="483.422"
           style="fill:#e96c25;fill-opacity:1" /></g></g></g></svg>